<svg viewBox="0 0 44 44" fill="none" xmlns="http://www.w3.org/2000/svg">
  <rect width="44" height="44" rx="10" fill="#3D2B1F"/>
  <path d="M6 28 C6 16 14 8 22 8 C30 8 38 16 38 28" stroke="#C4724A" stroke-width="1.5" fill="none" stroke-linecap="round" opacity="0.4"/>
  <path d="M8 28 C8 35 14 40 22 40 C30 40 36 35 36 28" stroke="#C4724A" stroke-width="2" fill="rgba(196,114,74,0.15)" stroke-linecap="round"/>
  <path d="M10 31 C14 29 18 30 22 30 C26 30 30 29 34 31" stroke="#C4724A" stroke-width="1.3" fill="none" stroke-linecap="round" opacity="0.6"/>
  <path d="M9 35 C13 33 18 34 22 34 C26 34 31 33 35 35" stroke="#C4724A" stroke-width="1.3" fill="none" stroke-linecap="round" opacity="0.35"/>
  <ellipse cx="18.5" cy="27" rx="2.8" ry="2.2" fill="#C4724A" opacity="0.5"/>
  <ellipse cx="25.5" cy="27" rx="2.8" ry="2.2" fill="#C4724A" opacity="0.9"/>
</svg>
